<?xml version="1.0" standalone="no"?><svg xmlns="http://www.w3.org/2000/svg" viewBox="0 0 1440 320"><path fill="#0099ff" fill-opacity="1" d="M0,288L16,277.3C32,267,64,245,96,229.3C128,213,160,203,192,218.7C224,235,256,277,288,288C320,299,352,277,384,245.3C416,213,448,171,480,149.3C512,128,544,128,576,154.7C608,181,640,235,672,240C704,245,736,203,768,176C800,149,832,139,864,117.3C896,96,928,64,960,90.7C992,117,1024,203,1056,197.3C1088,192,1120,96,1152,74.7C1184,53,1216,107,1248,112C1280,117,1312,75,1344,85.3C1376,96,1408,160,1424,192L1440,224L1440,0L1424,0C1408,0,1376,0,1344,0C1312,0,1280,0,1248,0C1216,0,1184,0,1152,0C1120,0,1088,0,1056,0C1024,0,992,0,960,0C928,0,896,0,864,0C832,0,800,0,768,0C736,0,704,0,672,0C640,0,608,0,576,0C544,0,512,0,480,0C448,0,416,0,384,0C352,0,320,0,288,0C256,0,224,0,192,0C160,0,128,0,96,0C64,0,32,0,16,0L0,0Z"></path></svg>